<svg class="svg-icon" style="width: 1em; height: 1em;vertical-align: middle;fill: currentColor;overflow: hidden;" viewBox="0 0 1024 1024" version="1.1" xmlns="http://www.w3.org/2000/svg"><path d="M512 67.408249c-248.270457 0-449.532273 199.050452-449.532273 444.591751 0 245.540276 201.261816 444.591751 449.532273 444.591751 248.26841 0 449.532273-199.051475 449.532273-444.591751C961.53125 266.458701 760.26841 67.408249 512 67.408249zM512 922.365228c-223.443002 0-414.811494-189.379185-414.811494-410.365228 0-220.98809 191.368492-410.365228 414.811494-410.365228 223.441978 0 414.811494 189.377138 414.811494 410.365228C926.811494 732.986043 735.441978 922.365228 512 922.365228zM525.535271 211.499995l-27.070542 0c-14.891152 0-27.074635 6.305613-27.074635 14.012132l0 436.090123c0 7.706519 12.183484 14.012132 27.074635 14.012132l27.070542 0c14.891152 0 27.074635-6.305613 27.074635-14.012132L552.609906 225.512127C552.609906 217.805608 540.426423 211.499995 525.535271 211.499995zM525.535271 731.279169l-27.070542 0c-14.891152 0-27.074635 9.138124-27.074635 20.306488l0 40.60786c0 11.168364 12.183484 20.306488 27.074635 20.306488l27.070542 0c14.891152 0 27.074635-9.138124 27.074635-20.306488l0-40.60786C552.609906 740.417293 540.426423 731.279169 525.535271 731.279169z"  /></svg>