<?xml version="1.0" standalone="no"?>
<!DOCTYPE svg PUBLIC "-//W3C//DTD SVG 20010904//EN"
 "http://www.w3.org/TR/2001/REC-SVG-20010904/DTD/svg10.dtd">
<svg version="1.0" xmlns="http://www.w3.org/2000/svg"
 width="1280.000000pt" height="929.000000pt" viewBox="0 0 1280.000000 929.000000"
 preserveAspectRatio="xMidYMid meet">
<metadata>
Created by potrace 1.15, written by Peter Selinger 2001-2017
</metadata>
<g transform="translate(0.000000,929.000000) scale(0.100000,-0.100000)"
fill="#000000" stroke="none">
<path d="M5760 9274 c-140 -7 -361 -23 -490 -34 -129 -11 -302 -25 -385 -30
-171 -11 -243 -27 -299 -67 -79 -56 -109 -169 -67 -251 23 -45 43 -63 101 -92
25 -12 46 -24 48 -25 1 -1 9 -191 17 -421 12 -329 13 -492 5 -759 -26 -864
-31 -1068 -37 -1328 -6 -276 -12 -321 -42 -303 -6 4 -50 51 -97 104 -88 98
-133 176 -229 392 -20 47 -50 99 -65 115 -21 23 -29 43 -33 90 -4 33 -13 80
-22 104 -14 41 -14 48 10 140 45 171 52 318 29 578 l-7 71 78 36 c96 44 190
111 245 173 47 53 135 225 127 247 -4 10 -33 16 -99 20 -426 27 -509 35 -522
45 -11 10 -202 306 -214 332 -1 3 13 33 32 65 53 91 53 105 -2 204 -47 83 -49
85 -107 107 -33 12 -70 22 -83 22 -22 1 -22 0 -6 -30 15 -30 22 -114 10 -126
-3 -3 -21 8 -41 26 -54 47 -98 40 -74 -13 14 -29 5 -71 -16 -80 -9 -3 -39 4
-68 15 -103 41 -217 12 -271 -69 l-19 -29 -34 19 c-53 32 -64 20 -57 -59 3
-40 2 -79 -5 -95 -9 -25 -16 -28 -54 -28 -90 0 -113 -94 -42 -170 13 -14 25
-34 27 -44 3 -19 17 -30 49 -40 31 -9 79 -110 86 -178 l6 -64 -64 3 c-114 7
-166 -51 -156 -174 9 -121 81 -193 194 -193 l50 0 6 -52 c4 -29 14 -170 23
-313 l17 -260 -27 -52 c-19 -39 -26 -67 -26 -113 l0 -60 -54 -24 c-29 -13 -57
-29 -61 -36 -4 -6 -16 -78 -26 -158 -15 -122 -29 -180 -80 -337 -34 -104 -64
-202 -67 -217 -2 -16 -9 -28 -16 -28 -36 1 -206 44 -271 69 -61 23 -82 27
-107 20 -17 -4 -34 -6 -38 -4 -4 3 -13 -2 -20 -10 -7 -8 -16 -15 -21 -15 -15
0 -10 47 6 60 33 28 4 128 -52 182 -16 15 -66 48 -113 73 -47 26 -91 54 -98
63 -8 10 -12 51 -12 117 0 102 -11 157 -36 184 -10 11 -16 12 -27 2 -16 -13
-45 -115 -49 -171 -2 -27 -8 -35 -28 -40 -22 -5 -25 -12 -28 -52 l-3 -47 -91
45 c-145 70 -176 59 -152 -55 22 -104 115 -231 217 -294 36 -22 54 -42 67 -73
23 -52 50 -68 99 -59 60 10 83 9 154 -10 58 -16 71 -16 95 -4 15 7 30 15 35
17 4 2 7 -19 7 -46 0 -49 0 -49 38 -56 20 -3 91 -24 157 -46 183 -62 385 -120
416 -120 33 0 33 0 85 220 20 85 40 159 44 163 9 10 14 -14 40 -232 27 -221
26 -248 -14 -383 -19 -64 -36 -135 -38 -159 -3 -48 -13 -42 149 -89 47 -13 76
-28 83 -40 6 -11 22 -106 35 -212 14 -106 27 -208 30 -225 5 -30 4 -33 -19
-33 -13 0 -127 -29 -253 -65 -218 -63 -346 -109 -515 -188 -43 -20 -78 -33
-78 -29 0 5 34 64 76 132 42 67 83 143 90 167 8 25 25 53 38 64 47 37 67 171
33 222 -9 15 -17 35 -17 46 0 37 -185 65 -271 41 -58 -16 -82 -48 -111 -152
-54 -191 -55 -194 -183 -301 -123 -105 -158 -125 -182 -106 -7 7 -35 22 -61
34 -73 34 -308 237 -321 278 -15 44 -41 68 -121 107 -36 18 -66 34 -68 35 -1
1 2 14 9 28 17 37 4 72 -33 95 -54 33 -83 37 -107 13 -29 -29 -26 -38 12 -33
22 2 41 -3 60 -18 l28 -22 -26 -33 c-14 -19 -25 -38 -25 -43 0 -6 16 -23 36
-39 32 -26 36 -33 29 -61 -8 -38 -17 -40 -39 -7 -17 26 -71 57 -120 69 -16 4
-42 18 -57 31 -16 13 -34 25 -41 28 -9 3 -6 11 10 26 12 12 22 34 23 49 l1 27
10 -27 c10 -29 38 -39 38 -14 0 7 -6 32 -14 54 l-15 41 52 24 c110 50 154 115
164 239 3 40 12 83 19 95 18 29 18 77 -1 93 -8 7 -15 26 -15 42 0 17 -9 43
-20 59 l-21 28 41 52 c48 61 52 95 13 111 -22 9 -24 12 -11 15 15 4 6 20 -47
88 -98 126 -137 193 -124 217 6 11 9 45 7 76 -4 64 8 75 37 32 11 -17 28 -32
38 -35 9 -3 26 -8 37 -11 20 -5 21 -3 14 48 -11 90 -59 146 -147 174 -28 8
-34 13 -19 13 29 1 76 -19 126 -53 21 -14 49 -26 62 -26 15 0 33 -13 50 -35
32 -42 44 -44 44 -7 0 36 -45 107 -95 151 -58 51 -110 71 -185 71 -75 0 -123
-23 -142 -67 -7 -16 -13 -29 -14 -31 -4 -7 -90 43 -102 59 -17 24 -76 42 -137
42 -100 0 -182 -23 -313 -88 -100 -50 -139 -76 -185 -122 -147 -147 -213 -425
-147 -617 11 -33 20 -61 20 -63 0 -1 -27 -3 -60 -3 -52 0 -64 -4 -95 -31 -59
-52 -70 -81 -69 -189 1 -150 43 -245 132 -297 39 -23 59 -28 112 -28 42 1 76
7 97 18 30 16 34 16 68 0 36 -17 38 -17 108 12 36 15 16 -21 -44 -77 -49 -47
-56 -58 -39 -58 60 0 140 79 140 138 l0 38 73 23 c39 13 77 25 82 27 13 5 76
-93 121 -191 41 -88 44 -75 -31 -129 -27 -18 -29 -34 -10 -78 5 -13 3 -18 -8
-18 -19 0 -79 -67 -96 -108 -10 -25 -18 -31 -32 -27 -28 9 -100 -27 -138 -70
-39 -45 -81 -129 -81 -164 0 -14 8 -34 18 -45 33 -37 331 -919 424 -1251 68
-248 68 -248 109 -438 30 -145 30 -155 -10 -191 -12 -11 -21 -28 -21 -38 0
-19 1 -19 29 1 16 12 31 21 34 21 2 0 0 -21 -6 -46 -8 -33 -7 -65 1 -114 16
-95 29 -121 57 -114 14 3 40 -3 66 -16 98 -50 164 -64 548 -116 l43 -6 -53
-49 c-37 -33 -71 -54 -107 -65 -45 -13 -53 -19 -50 -37 3 -19 9 -22 51 -20 57
2 69 11 139 105 27 37 56 68 63 68 17 0 22 -22 36 -188 10 -111 10 -148 1
-162 -7 -11 -9 -33 -5 -52 l6 -33 -25 23 c-13 12 -28 19 -31 15 -4 -3 -4 -83
0 -176 6 -151 5 -170 -9 -164 -74 28 -160 47 -212 47 -57 -1 -59 -2 -36 -14
23 -13 22 -14 -21 -9 -34 4 -48 1 -58 -11 -8 -9 -11 -19 -8 -23 4 -3 -3 -17
-13 -31 -26 -32 -26 -86 0 -112 25 -25 31 -25 64 1 29 23 33 54 10 87 -8 12
-13 22 -11 22 31 0 207 -81 207 -96 0 -2 -25 -15 -55 -28 -92 -41 -257 -147
-313 -200 -57 -55 -95 -136 -90 -190 7 -69 107 -69 175 -1 18 18 33 43 33 55
0 21 -38 65 -75 86 -16 9 -4 15 80 42 113 36 431 112 470 112 38 0 425 -163
425 -179 0 -4 -7 -17 -16 -29 -16 -23 -22 -81 -10 -100 9 -15 72 -21 110 -11
44 12 106 69 106 98 0 29 -43 71 -72 71 -16 1 -28 11 -39 34 l-16 34 35 -18
c31 -17 63 -18 61 -1 0 3 -53 39 -117 79 -64 40 -132 86 -151 101 l-34 28 79
27 c98 32 105 32 135 0 21 -22 29 -25 64 -19 95 15 114 70 45 126 -22 18 -40
40 -40 50 0 10 -11 26 -26 35 -20 14 -31 15 -57 6 -207 -70 -306 -106 -349
-128 -27 -14 -52 -24 -54 -22 -2 2 0 15 3 28 6 22 7 23 14 4 6 -16 9 -14 23
19 12 27 15 52 10 87 -6 42 -4 50 15 62 29 18 28 56 -2 60 -24 3 -24 2 -26 93
-1 59 -3 66 -25 75 -27 10 -41 54 -31 98 6 29 -10 250 -21 288 -5 20 -1 21
123 27 165 8 304 46 419 112 51 30 94 94 103 154 l6 46 69 12 c38 7 71 12 72
10 2 -2 -2 -72 -7 -157 -15 -212 8 -795 32 -846 9 -17 1 -37 -46 -114 -31 -51
-57 -105 -57 -120 -1 -35 109 -294 140 -327 21 -22 25 -24 38 -11 12 12 13 23
3 67 -12 56 -6 101 14 101 20 0 91 -52 126 -92 18 -20 60 -51 93 -68 64 -32
127 -38 233 -23 41 5 49 10 60 37 17 40 8 85 -19 96 -11 5 -45 16 -75 25 -132
40 -246 162 -303 323 -30 85 -30 90 78 647 36 187 69 344 73 348 5 5 19 -18
31 -50 37 -92 87 -190 153 -297 l61 -100 8 -290 c9 -370 20 -481 51 -514 30
-33 77 -52 131 -52 43 0 44 1 51 37 4 21 4 94 0 163 -9 142 -5 145 55 41 34
-60 53 -77 71 -65 15 9 10 39 -17 98 -14 32 -23 60 -20 64 4 3 30 -5 59 -18
126 -56 179 -69 275 -70 106 0 142 12 190 63 49 51 41 70 -35 80 -81 10 -122
28 -182 81 -27 24 -103 80 -168 124 -65 44 -130 93 -145 109 -30 31 -103 191
-112 245 -16 90 -64 953 -54 963 10 11 456 -49 543 -73 29 -8 31 -12 42 -88 6
-43 12 -109 12 -146 1 -37 6 -70 12 -73 6 -4 37 -9 70 -12 47 -5 63 -2 78 11
25 23 44 117 39 199 l-3 67 52 0 c28 0 211 -13 405 -30 194 -16 448 -34 563
-41 276 -16 1084 -16 1350 0 246 14 770 57 865 71 36 5 79 10 95 10 l30 0 -28
-23 c-27 -21 -28 -24 -25 -107 l3 -84 102 -1 102 -1 15 71 c8 38 18 92 22 118
7 53 15 59 90 71 l41 7 17 -63 c9 -35 27 -111 40 -170 21 -97 21 -108 7 -113
-9 -2 -101 -18 -206 -35 -201 -33 -225 -43 -225 -89 0 -32 31 -85 62 -105 60
-38 136 -49 296 -42 l154 7 -41 -39 c-46 -44 -50 -59 -22 -93 19 -23 25 -24
135 -22 64 1 116 -1 116 -4 0 -3 -18 -114 -39 -247 -22 -132 -43 -285 -47
-339 -5 -77 -9 -97 -20 -93 -10 4 -14 -3 -14 -20 0 -63 51 -124 132 -158 34
-15 37 -14 82 14 25 16 46 31 46 32 3 67 31 273 39 282 6 7 24 122 40 255 21
182 33 246 45 260 11 12 38 21 74 25 140 17 158 37 149 175 -6 80 -4 98 10
113 14 16 15 30 4 131 -6 62 -11 131 -11 152 0 34 2 37 14 25 7 -8 38 -69 69
-135 31 -66 74 -153 96 -192 21 -40 36 -75 33 -77 -4 -2 -22 -7 -40 -11 -18
-4 -48 -21 -67 -40 -45 -42 -49 -102 -10 -140 48 -49 145 -18 145 45 0 20 6
29 23 34 28 7 39 -7 112 -147 45 -87 54 -112 43 -119 -38 -27 -207 -103 -308
-138 -135 -48 -152 -60 -126 -89 24 -27 76 -43 156 -50 l65 -6 3 -40 c2 -22 8
-45 14 -52 15 -19 53 -16 98 7 37 19 44 30 52 84 2 12 15 23 33 28 38 11 285
25 285 16 0 -3 -91 -62 -202 -129 -215 -130 -262 -167 -252 -194 4 -8 0 -23
-9 -33 -34 -38 -23 -87 28 -120 43 -27 55 -27 105 -2 67 34 81 89 30 118 -37
21 -37 27 -2 40 111 39 410 170 434 191 28 22 29 25 12 31 -15 6 -6 14 45 39
57 29 101 35 87 12 -3 -4 2 -15 12 -23 32 -27 349 -207 398 -227 42 -16 49
-23 51 -47 0 -16 2 -37 2 -46 1 -21 61 -58 94 -58 30 0 85 43 98 78 13 33 4
56 -29 73 -15 8 -43 30 -62 49 -20 19 -100 91 -178 160 -123 108 -140 126
-121 130 13 3 46 -2 73 -12 37 -13 78 -18 151 -17 l100 2 5 -59 c7 -81 13 -87
72 -82 94 10 122 71 71 158 -15 26 -25 58 -24 76 1 25 -4 33 -21 39 -13 5
-146 10 -297 12 -207 2 -278 0 -289 -10 -13 -10 -14 -9 -8 13 21 71 18 286 -3
251 -7 -10 -9 -10 -14 2 -3 8 2 25 10 37 15 21 15 24 -6 39 -18 13 -22 25 -19
54 2 21 8 37 13 37 6 0 10 -4 10 -10 0 -24 30 -32 143 -37 112 -6 120 -7 112
-24 -27 -49 2 -123 57 -146 92 -38 206 46 174 128 -10 27 -47 63 -73 72 -10 4
-18 15 -18 25 0 37 -35 53 -157 73 -65 10 -148 19 -184 19 l-67 0 -5 57 c-2
32 -4 59 -3 60 2 3 160 -10 289 -22 55 -6 59 -5 87 25 26 28 32 30 70 24 l41
-7 -6 -41 c-6 -39 -5 -40 10 -21 9 11 20 19 24 18 5 -1 22 15 39 36 35 44 161
147 241 199 42 27 55 31 62 21 4 -7 10 -11 12 -9 2 3 43 57 90 120 338 447
422 547 592 703 196 178 361 306 662 511 227 155 325 233 354 279 26 44 26
144 0 195 -23 44 -96 101 -174 137 -197 91 -581 -8 -882 -226 -52 -37 -95 -65
-95 -60 0 4 18 33 41 65 56 78 45 89 -14 15 -27 -33 -54 -58 -60 -56 -13 4
-11 68 3 77 34 23 41 116 10 143 -14 12 -20 29 -20 60 0 24 -5 48 -12 55 -6 6
-9 15 -5 18 3 3 37 -25 74 -64 81 -84 117 -97 238 -89 95 7 141 19 183 50 86
61 156 115 185 140 29 25 31 28 14 38 -17 10 -17 12 -2 36 27 40 34 79 24 118
-6 19 -13 35 -17 35 -4 0 -20 -19 -37 -41 -44 -59 -76 -74 -132 -59 -59 17
-67 34 -49 117 23 110 52 173 117 253 123 153 179 288 187 451 8 191 -46 331
-174 448 -114 104 -232 138 -447 128 -117 -6 -131 -5 -155 13 -32 24 -205 60
-282 60 -30 -1 -65 -6 -77 -13 -41 -23 -205 -213 -237 -274 -20 -40 -20 -49
-1 -33 13 11 15 8 15 -15 0 -21 3 -25 13 -17 10 9 34 -1 98 -39 46 -28 86 -53
88 -55 2 -2 -8 -13 -22 -24 -40 -32 -139 -168 -171 -238 -26 -54 -35 -64 -74
-78 -65 -25 -92 -50 -92 -85 0 -37 30 -96 63 -128 31 -28 25 -51 -12 -51 -49
0 -64 -21 -69 -94 -5 -75 8 -100 58 -111 24 -5 28 -12 34 -51 7 -56 35 -121
73 -171 40 -53 135 -111 204 -125 51 -10 59 -15 59 -35 0 -13 -6 -23 -15 -23
-12 0 -35 -55 -35 -86 0 -18 -88 -51 -155 -58 -87 -10 -214 -41 -284 -70 l-61
-25 0 23 c0 24 -28 56 -48 56 -7 0 -12 16 -12 39 0 33 -18 97 -55 196 -21 55
28 -31 61 -107 36 -86 49 -106 60 -95 8 8 -129 418 -184 547 -54 128 -129 264
-214 386 -79 115 -185 244 -199 244 -16 0 -6 -21 50 -104 117 -173 247 -408
236 -426 -3 -4 -1 -10 3 -12 9 -3 124 -260 119 -265 -5 -4 -152 311 -150 319
2 4 -33 60 -76 125 -82 123 -206 267 -222 257 -5 -3 -18 1 -30 9 -20 15 -20
15 14 26 20 7 38 18 41 26 7 19 -3 45 -18 45 -6 0 -1 8 10 18 53 42 59 109 15
153 -22 21 -39 29 -65 29 -20 0 -36 3 -36 8 0 4 16 28 35 55 30 40 40 47 69
47 18 0 50 -7 69 -15 47 -20 130 -19 172 1 72 34 143 181 125 258 -11 48 -51
100 -90 116 -17 7 -29 16 -28 20 2 5 51 46 109 93 65 52 109 95 113 110 9 39
53 74 107 87 58 14 66 26 67 99 1 64 -1 69 -83 174 -76 98 -106 128 -164 161
-27 15 -51 38 -60 58 -13 27 -27 37 -73 53 -45 15 -60 25 -67 46 -7 19 -19 29
-43 34 -56 12 -98 36 -114 66 -16 31 -41 37 -76 18 -19 -10 -20 -9 -14 16 8
31 -1 65 -17 65 -6 0 -24 -12 -39 -27 l-28 -27 0 40 c0 23 -3 43 -6 47 -9 9
-55 -17 -81 -45 -24 -26 -63 -156 -63 -211 0 -38 -17 -58 -30 -37 -15 25 -67
-10 -167 -113 -59 -61 -109 -122 -124 -152 l-24 -51 -90 0 c-110 0 -221 -20
-246 -45 -32 -32 -24 -83 29 -177 26 -47 64 -104 85 -128 l39 -44 -17 -48
c-17 -46 -17 -50 0 -81 l17 -34 -30 -24 c-44 -33 -52 -71 -48 -216 l3 -128
-22 21 c-29 27 -79 26 -173 -6 -165 -55 -282 -130 -282 -181 0 -13 -16 -44
-35 -67 -42 -51 -78 -130 -134 -291 -83 -235 -128 -446 -137 -635 -3 -63 -7
-129 -10 -145 l-4 -31 -153 23 c-322 47 -762 89 -1202 114 -246 14 -1087 18
-1356 6 l-187 -8 38 166 c21 92 40 168 42 170 7 7 827 30 1068 30 274 0 542
-19 576 -41 12 -7 25 -25 28 -41 16 -67 69 -218 84 -241 l17 -26 7 44 c4 23 9
45 12 47 7 7 53 -41 69 -73 9 -17 24 -34 32 -38 14 -5 16 -1 10 27 -15 71 -48
174 -76 231 -16 33 -29 61 -29 63 0 2 108 3 240 3 l241 0 -3 133 -3 132 -34
10 -34 10 7 165 c6 161 27 507 46 780 5 74 25 227 44 340 63 374 73 646 55
1469 -13 575 -12 585 7 595 46 26 111 103 123 149 20 69 10 157 -22 205 -32
50 -135 104 -239 126 -203 45 -1212 68 -1718 40z m1221 -44 c270 -15 492 -38
547 -56 64 -22 129 -68 149 -107 33 -64 16 -174 -34 -219 -17 -16 -25 -16 -98
-3 -71 12 -404 36 -915 65 -96 5 -366 10 -600 11 -422 1 -427 0 -765 -36 -187
-20 -384 -42 -438 -51 -94 -14 -100 -13 -145 6 -81 36 -93 44 -112 70 -66 93
0 210 135 240 27 6 133 15 236 20 102 5 193 12 200 15 32 11 375 35 524 36 88
1 219 5 290 8 206 12 823 12 1026 1z m-591 -371 c680 -36 1143 -69 1156 -82 2
-1 4 -374 6 -827 4 -983 2 -1001 -91 -1530 -69 -391 -192 -793 -268 -872 -44
-46 -143 -70 -458 -113 -104 -14 -221 -31 -260 -38 -43 -7 -162 -12 -310 -11
-215 1 -255 4 -385 28 -256 47 -611 101 -761 116 -101 11 -234 3 -283 -16 -18
-7 -19 -3 -13 56 4 35 7 104 7 154 l0 92 194 226 c107 125 200 236 206 248 12
22 8 33 -21 65 -18 20 -17 22 25 77 46 57 83 78 139 78 39 0 115 36 121 58 2
9 12 49 21 89 12 51 22 74 35 78 35 11 44 58 32 177 -12 128 -25 151 -82 147
-25 -2 -46 4 -69 20 -30 22 -43 23 -82 7 -15 -6 -17 8 -21 126 -6 158 -32 255
-80 300 -34 31 -46 34 -72 15 -16 -12 -18 -38 -20 -288 -3 -256 -5 -285 -33
-440 -17 -92 -28 -179 -26 -193 3 -15 17 -35 31 -46 l25 -20 -21 -47 c-14 -33
-27 -49 -42 -51 -23 -4 -39 -23 -183 -237 l-102 -150 -3 110 c-2 61 1 263 7
450 6 187 16 556 22 819 5 264 12 483 15 487 6 10 -14 570 -26 723 -8 92 -8
131 0 136 6 4 64 12 128 18 64 7 207 21 317 33 457 48 746 54 1225 28z m-2690
-83 c0 -3 -4 -8 -10 -11 -5 -3 -10 -1 -10 4 0 6 5 11 10 11 6 0 10 -2 10 -4z
m56 -27 c19 -22 19 -22 -3 -10 -13 6 -23 16 -23 21 0 15 5 12 26 -11z m-36
-359 c0 -5 -5 -10 -11 -10 -5 0 -7 5 -4 10 3 6 8 10 11 10 2 0 4 -4 4 -10z
m-492 -76 c-3 -14 -5 -12 -10 9 -3 19 -2 25 4 19 6 -6 8 -18 6 -28z m-52 -319
c9 -37 0 -40 -13 -5 -6 17 -7 30 -2 30 5 0 11 -11 15 -25z m314 -551 c56 -68
107 -105 196 -141 64 -26 78 -28 197 -27 l127 2 0 -38 c0 -23 -7 -43 -17 -51
-50 -42 -475 29 -505 84 -8 15 -58 207 -58 223 0 14 20 -4 60 -52z m1607 24
c-3 -7 -5 -2 -5 12 0 14 2 19 5 13 2 -7 2 -19 0 -25z m4458 -218 c3 -5 2 -10
-4 -10 -5 0 -13 5 -16 10 -3 6 -2 10 4 10 5 0 13 -4 16 -10z m-4468 -107 c-2
-16 -4 -5 -4 22 0 28 2 40 4 28 2 -13 2 -35 0 -50z m210 -79 c-3 -3 -12 -4
-19 -1 -8 3 -5 6 6 6 11 1 17 -2 13 -5z m-1512 -99 c44 0 104 4 134 9 65 10
68 -7 5 -39 -54 -28 -177 -25 -256 5 -78 29 -86 45 -17 34 30 -5 90 -9 134 -9z
m6545 -100 c0 -5 -5 -3 -10 5 -5 8 -10 20 -10 25 0 6 5 3 10 -5 5 -8 10 -19
10 -25z m-1234 -6 c8 -14 -10 -11 -32 6 -18 13 -18 14 4 8 12 -3 25 -9 28 -14z
m-5836 -13 c0 -2 3 -11 6 -20 4 -11 0 -16 -12 -16 -15 -1 -9 -10 23 -39 50
-45 215 -114 331 -138 42 -9 79 -18 81 -19 2 -2 -12 -22 -32 -46 -42 -52 -88
-142 -113 -220 -10 -32 -20 -58 -23 -58 -26 0 -207 195 -257 275 -26 43 -12
29 38 -40 87 -117 178 -206 178 -174 0 6 -37 50 -82 98 l-83 86 78 -75 c71
-68 109 -117 106 -137 0 -4 5 -9 11 -11 28 -10 -28 69 -106 149 -93 96 -128
158 -147 265 -11 58 -14 64 -26 50 -7 -9 -13 -37 -13 -64 0 -42 -1 -44 -9 -17
-4 16 -6 41 -3 55 8 39 36 100 46 100 4 0 8 -2 8 -4z m7080 -76 c0 -5 -5 -10
-11 -10 -5 0 -7 5 -4 10 3 6 8 10 11 10 2 0 4 -4 4 -10z m-6194 -36 c8 -46 -1
-178 -16 -229 l-12 -40 -20 50 c-17 47 -51 88 -79 97 -22 7 0 58 34 78 18 11
41 33 52 50 26 39 33 38 41 -6z m-892 -49 c5 -22 4 -26 -4 -15 -5 8 -10 24
-10 34 0 26 6 18 14 -19z m2123 -17 c-3 -7 -5 -2 -5 12 0 14 2 19 5 13 2 -7 2
-19 0 -25z m-2084 -81 c14 -26 22 -45 16 -42 -10 7 -49 79 -49 91 0 10 3 6 33
-49z m-49 27 c3 -8 2 -12 -4 -9 -6 3 -10 10 -10 16 0 14 7 11 14 -7z m-2 -96
c23 -35 87 -110 143 -168 116 -123 183 -216 254 -356 55 -108 58 -123 37 -201
-12 -45 -12 -53 3 -69 9 -10 -29 24 -84 77 -55 52 -144 130 -197 173 -54 43
-98 86 -98 95 0 9 11 59 25 111 28 110 30 126 13 113 -7 -5 -32 -11 -55 -12
-33 -2 -44 2 -53 18 -9 18 -41 281 -33 281 1 0 21 -28 45 -62z m495 34 c7 -4
19 -25 28 -46 15 -35 15 -40 1 -54 -13 -13 -21 -14 -55 -2 -65 21 -66 23 -37
69 26 41 40 48 63 33z m255 -11 c-8 -4 -13 -12 -13 -17 2 -22 -41 -64 -65 -64
-16 0 -24 5 -22 13 6 16 86 77 101 77 8 0 7 -3 -1 -9z m193 -48 c3 -10 9 -48
12 -85 6 -75 -11 -118 -47 -118 -25 0 -25 -18 0 -50 11 -14 20 -36 20 -49 0
-23 -59 -192 -85 -240 l-12 -24 -13 37 c-9 28 -9 64 -1 159 13 136 24 189 45
206 8 7 24 50 37 96 24 87 32 98 44 68z m-2087 -15 c14 -14 17 -178 3 -178 -5
0 -19 9 -32 19 -21 17 -24 27 -22 85 1 37 5 71 8 76 8 14 29 12 43 -2z m1956
-225 c-9 -48 -18 -100 -21 -115 -3 -16 -9 -28 -13 -28 -5 0 -5 13 0 30 7 23 4
35 -10 52 -13 15 -19 18 -20 9 0 -8 8 -20 18 -28 9 -8 12 -12 5 -9 -7 4 -10
-2 -6 -16 2 -13 -4 -5 -15 17 l-18 40 24 19 c19 15 23 26 19 55 -3 30 0 40 22
58 14 12 27 18 29 13 2 -4 -4 -48 -14 -97z m-338 0 c56 -54 71 -88 65 -143 -4
-42 -5 -43 -11 -15 -4 17 -3 38 2 48 5 10 5 17 -1 17 -5 0 -19 -37 -31 -82
-12 -46 -24 -91 -26 -100 -3 -10 -3 -18 0 -18 3 0 10 15 15 33 6 20 9 24 10
12 0 -11 -3 -26 -8 -34 -6 -10 -4 -25 5 -42 8 -16 14 -34 14 -41 0 -7 -10 7
-22 30 -69 127 -102 182 -138 230 -22 29 -40 58 -40 65 0 7 9 41 21 75 l21 62
41 -29 c23 -16 61 -47 83 -68z m7354 27 c12 -8 11 -10 -7 -10 -13 0 -23 5 -23
10 0 13 11 13 30 0z m-9940 -65 c0 -3 -4 -13 -10 -23 -5 -9 -19 -41 -31 -70
-12 -29 -23 -51 -25 -49 -6 5 50 147 58 147 5 0 8 -2 8 -5z m114 -55 c7 -24 6
-24 -8 -6 -9 11 -16 27 -16 35 0 21 16 2 24 -29z m834 -41 c30 -29 32 -34 32
-103 0 -56 -4 -75 -15 -80 -12 -4 -13 -11 -5 -31 15 -39 12 -55 -8 -55 -37 0
-50 30 -53 120 -3 117 0 180 9 180 4 0 22 -14 40 -31z m-851 -26 c-3 -10 -5
-4 -5 12 0 17 2 24 5 18 2 -7 2 -21 0 -30z m8749 -8 c-11 -8 -25 -15 -30 -15
-6 1 0 7 14 15 32 19 40 18 16 0z m-7607 -58 c0 -21 -1 -21 -9 -2 -12 28 -12
37 0 30 6 -3 10 -16 9 -28z m1378 11 c-3 -8 -6 -5 -6 6 -1 11 2 17 5 13 3 -3
4 -12 1 -19z m18 -53 c-4 -36 -10 -64 -12 -61 -3 2 -2 34 2 71 4 36 10 64 12
61 3 -2 2 -34 -2 -71z m523 -5 c27 -41 71 -99 98 -129 54 -61 192 -181 206
-181 5 0 26 18 45 40 20 22 41 40 46 40 11 0 2 -98 -19 -213 -18 -94 -11 -110
39 -96 47 13 47 13 47 -40 l0 -49 -41 -7 c-25 -4 -37 -11 -32 -16 28 -28 204
-33 1088 -31 871 3 1237 10 1549 33 82 6 152 7 156 2 5 -4 10 -39 12 -78 l3
-70 -320 0 c-213 0 -365 5 -455 15 -161 18 -385 18 -875 0 -215 -8 -525 -11
-770 -8 l-410 5 -3 56 c-2 32 -7 57 -11 57 -5 0 -12 -28 -15 -61 -11 -96 -18
-93 254 -97 221 -4 230 -5 230 -23 0 -11 -13 -72 -30 -136 -16 -63 -30 -135
-30 -159 l0 -44 -77 0 c-133 0 -260 -14 -823 -91 -80 -11 -158 -22 -174 -25
-29 -6 -29 -6 -23 32 3 22 17 95 31 164 50 247 45 231 66 220 10 -6 37 -10 59
-10 47 0 167 45 175 65 3 8 1 40 -4 72 -42 271 -74 870 -45 841 2 -2 26 -37
53 -78z m3138 -257 c-17 -177 -34 -324 -37 -327 -5 -6 -292 -26 -297 -21 -9 8
42 26 129 45 51 11 96 23 100 27 12 15 58 230 104 488 17 96 23 120 30 114 2
-2 -11 -149 -29 -326z m-5426 245 c0 -4 -9 -8 -20 -8 -11 0 -20 4 -20 8 0 4 9
8 20 8 11 0 20 -4 20 -8z m7620 9 c0 -2 -10 -12 -22 -23 l-23 -19 19 23 c18
21 26 27 26 19z m-7467 -57 c3 -11 1 -20 -4 -20 -5 0 -9 9 -9 20 0 11 2 20 4
20 2 0 6 -9 9 -20z m7085 -131 l54 -11 -82 -84 c-93 -95 -86 -66 -60 -252 13
-91 7 -113 -27 -92 -16 10 -66 -12 -352 -154 -184 -91 -338 -166 -344 -166
-16 0 0 127 28 225 26 88 146 419 165 456 10 17 20 20 67 17 53 -3 57 -5 64
-32 13 -46 36 -63 119 -85 86 -24 109 -20 149 23 30 31 39 106 21 174 -7 26
-14 55 -17 65 -4 14 13 8 79 -27 46 -25 107 -50 136 -57z m475 64 c6 -31 5
-33 -36 -43 -83 -22 -133 -45 -218 -102 -91 -61 -211 -179 -244 -241 -11 -20
-22 -37 -25 -37 -4 0 -12 37 -20 82 l-13 82 44 40 c65 58 202 145 283 179 59
25 218 78 222 73 1 0 4 -15 7 -33z m-7359 12 c-6 -15 -42 -31 -51 -22 -3 4 18
18 54 36 1 1 0 -6 -3 -14z m8556 7 c0 -4 -14 -16 -31 -26 -31 -18 -33 -13 -6
22 10 13 37 17 37 4z m-7181 -82 c0 -8 -6 0 -14 19 -8 18 -15 36 -15 40 1 13
29 -45 29 -59z m-35 -4 c-3 -15 -8 -25 -11 -23 -2 3 -1 17 3 31 3 15 8 25 11
23 2 -3 1 -17 -3 -31z m4795 2 c19 -12 19 -13 -5 -35 -18 -16 -24 -32 -22 -51
4 -36 29 -39 59 -8 24 26 79 36 79 15 0 -6 -14 -24 -31 -41 -84 -85 -188 -388
-189 -553 0 -36 -5 -45 -45 -78 -25 -21 -45 -47 -45 -57 0 -10 -5 -22 -10 -25
-22 -14 4 -26 41 -20 l38 7 -6 -37 c-6 -34 -4 -37 18 -33 17 2 32 18 50 51 14
26 32 54 40 62 8 8 102 55 209 106 107 50 228 113 268 140 75 50 83 50 55 -4
-9 -18 -24 -57 -34 -87 -9 -30 -23 -58 -30 -62 -72 -37 -530 -231 -698 -296
-12 -4 -13 11 -7 94 14 201 50 353 144 615 32 90 68 197 78 237 10 39 20 72
21 72 2 0 12 -5 22 -12z m-4776 -61 c-3 -20 -9 -37 -13 -37 -4 0 -3 18 2 40
13 50 20 48 11 -3z m3622 -104 c-9 -53 -20 -104 -26 -114 -8 -16 -77 -44 -86
-35 -2 1 16 45 40 97 24 52 52 117 63 144 26 70 30 31 9 -92z m1675 79 c0 -5
-7 -17 -15 -28 -14 -18 -14 -17 -4 9 12 27 19 34 19 19z m-7590 -185 c0 -18
-2 -19 -10 -7 -13 20 -13 43 0 35 6 -3 10 -16 10 -28z m-768 -49 c-7 -7 -12
-8 -12 -2 0 14 12 26 19 19 2 -3 -1 -11 -7 -17z m4543 -13 c77 -12 181 -28
230 -35 50 -7 95 -15 102 -19 26 -14 -218 2 -309 20 -71 14 -138 19 -257 19
-136 0 -161 2 -161 15 0 13 11 18 65 28 42 7 195 -5 330 -28z m-3760 -53 c-15
-16 -16 -15 -4 12 7 15 15 23 17 16 3 -7 -3 -19 -13 -28z m3775 -17 c45 -11
143 -17 318 -22 138 -3 252 -9 252 -13 0 -16 -757 -27 -913 -14 -76 7 -77 7
-77 35 0 22 5 29 28 32 55 10 328 -3 392 -18z m1775 -15 c4 -7 -54 -10 -167
-9 -102 1 -161 5 -143 9 46 12 303 12 310 0z m2190 -97 c-4 -32 -7 -70 -7 -85
1 -19 -5 -29 -19 -33 -27 -9 -41 6 -44 46 -4 40 9 77 37 107 34 36 42 28 33
-35z m-3995 -143 c0 -5 -5 -10 -11 -10 -5 0 -7 5 -4 10 3 6 8 10 11 10 2 0 4
-4 4 -10z m4010 -97 c0 -38 8 -115 16 -173 9 -58 19 -140 21 -183 5 -78 4 -80
-43 -173 -35 -68 -53 -94 -64 -91 -216 63 -216 63 -283 123 l-47 41 22 40 c27
49 21 73 -33 138 l-41 50 68 6 c79 6 100 12 166 41 27 12 51 18 55 15 3 -4 -2
-60 -11 -124 -10 -65 -16 -136 -14 -158 l3 -40 17 30 c14 25 17 27 18 10 1
-18 2 -18 10 3 14 32 37 176 56 344 17 143 18 148 43 157 14 5 29 10 34 10 4
1 7 -29 7 -66z m-2155 -12 c-6 -20 -25 -30 -25 -13 1 26 14 52 22 44 6 -6 7
-19 3 -31z m-5825 -23 c0 -6 -7 -5 -15 2 -8 7 -15 17 -15 22 0 6 7 5 15 -2 8
-7 15 -17 15 -22z m5850 -35 c0 -22 -17 -49 -25 -41 -8 8 5 58 16 58 5 0 9 -8
9 -17z m-4603 -77 c-12 -18 -23 -33 -23 -32 -1 0 1 16 3 34 4 23 11 32 24 32
17 0 17 -2 -4 -34z m7742 -31 c0 -5 -6 1 -14 15 -8 14 -14 30 -14 35 0 6 6 -1
14 -15 8 -14 14 -29 14 -35z m-9255 -41 c67 -31 86 -51 61 -60 -10 -4 -25 -3
-34 3 -9 5 -40 16 -68 22 -29 7 -53 16 -53 19 0 6 31 42 36 42 2 0 28 -12 58
-26z m228 -1 c29 -26 21 -33 -37 -33 -48 0 -55 3 -55 19 0 33 61 42 92 14z
m1378 13 c0 -3 -4 -8 -10 -11 -5 -3 -10 -1 -10 4 0 6 5 11 10 11 6 0 10 -2 10
-4z m7680 -41 c0 -5 -5 -3 -10 5 -5 8 -10 20 -10 25 0 6 5 3 10 -5 5 -8 10
-19 10 -25z m914 -1 c3 -8 2 -12 -4 -9 -6 3 -10 10 -10 16 0 14 7 11 14 -7z
m-9570 -36 c22 -23 35 -47 40 -76 6 -38 20 -57 101 -141 106 -109 104 -105 84
-231 l-12 -69 -68 -26 c-75 -29 -132 -66 -196 -128 -43 -41 -43 -41 -36 -96 3
-31 14 -67 23 -81 10 -14 29 -46 43 -71 15 -26 50 -74 78 -108 l51 -62 -43 17
c-24 9 -56 29 -72 45 -33 35 -21 40 -195 -77 -68 -46 -130 -84 -137 -84 -16 0
-96 404 -103 524 -4 68 -9 93 -23 107 -18 18 -18 17 -25 -18 -16 -86 17 -295
77 -490 l32 -101 -42 -72 c-41 -71 -50 -103 -32 -114 5 -4 23 5 39 19 16 14
35 25 41 25 5 0 15 9 21 20 6 11 49 45 96 76 46 31 111 80 144 111 66 60 73
61 115 3 47 -64 35 -84 -146 -235 -155 -130 -213 -166 -285 -180 -62 -12 -65
-11 -69 9 -85 423 -148 691 -219 930 -17 58 -29 127 -33 194 -5 91 -8 102 -20
87 -7 -10 -15 -16 -17 -14 -3 3 -10 47 -16 98 -11 87 -10 96 7 120 23 30 100
60 158 61 31 0 54 -9 99 -40 66 -45 91 -52 58 -17 -12 13 -22 29 -22 35 0 7
-11 18 -25 24 -80 36 51 35 178 -3 88 -26 145 -57 175 -98 42 -57 71 -33 98
86 20 84 30 89 78 41z m-254 -4 c0 -9 -28 -3 -46 11 -17 13 -16 14 14 4 17 -6
32 -13 32 -15z m5703 -11 c-7 -2 -19 -2 -25 0 -7 3 -2 5 12 5 14 0 19 -2 13
-5z m-4323 -37 c0 -2 -7 -7 -16 -10 -8 -3 -12 -2 -9 4 6 10 25 14 25 6z m5744
-62 c9 -36 2 -40 -24 -14 -18 18 -20 24 -9 31 22 13 26 11 33 -17z m312 -62
c21 -16 46 -37 54 -48 8 -10 -5 -3 -30 17 -25 20 -54 41 -65 47 -11 6 -15 12
-9 12 6 0 29 -13 50 -28z m-6235 -35 l-24 -22 19 27 c10 14 21 24 23 22 3 -3
-6 -15 -18 -27z m2961 -33 c67 -34 307 -219 297 -228 -9 -8 -101 -52 -256
-122 -93 -42 -214 -103 -271 -136 -107 -63 -133 -89 -40 -42 29 15 159 73 288
128 250 108 374 171 365 187 -4 5 -13 9 -21 9 -8 0 -28 7 -44 15 -29 15 -123
92 -128 105 -2 5 16 10 40 13 24 3 70 14 102 26 33 11 62 21 66 21 3 0 26 -34
50 -76 47 -83 107 -246 112 -308 l3 -39 -175 -53 c-96 -30 -181 -54 -187 -54
-8 0 -13 15 -14 38 -1 20 -5 51 -9 67 -6 22 -8 11 -9 -45 -1 -65 -3 -73 -15
-57 -12 15 -14 12 -20 -30 -3 -27 -9 -87 -13 -135 -3 -49 -9 -88 -12 -88 -3 0
-51 7 -106 15 -55 9 -136 20 -180 26 -191 24 -387 60 -467 86 -54 17 -56 22
-34 113 8 36 18 54 27 53 8 0 52 -17 99 -37 148 -62 131 -38 -35 47 -195 101
-326 186 -305 199 8 5 188 78 399 163 211 85 389 159 395 165 12 12 34 6 98
-26z m-3012 16 c12 -8 11 -10 -7 -10 -13 0 -23 5 -23 10 0 13 11 13 30 0z
m143 -2 c33 2 38 11 -71 -142 -60 -82 -103 -131 -141 -159 -31 -22 -83 -64
-117 -93 l-60 -53 -26 26 c-20 19 -51 31 -128 48 -56 13 -105 26 -108 30 -4 3
19 31 50 61 59 57 87 66 122 39 38 -28 62 -18 146 63 76 73 98 112 65 112 -8
0 -46 -27 -86 -60 -44 -37 -81 -60 -95 -60 -24 0 -24 1 -10 28 8 15 44 56 80
91 l66 65 22 -21 c21 -19 31 -20 100 -14 57 5 84 12 105 28 15 12 35 19 43 16
8 -4 28 -6 43 -5z m-248 -8 c3 -5 2 -10 -4 -10 -5 0 -13 5 -16 10 -3 6 -2 10
4 10 5 0 13 -4 16 -10z m8490 0 c3 -5 -3 -10 -15 -10 -12 0 -18 5 -15 10 3 6
10 10 15 10 5 0 12 -4 15 -10z m-2987 -12 c7 -7 12 -15 12 -18 0 -4 -88 -13
-195 -20 -107 -7 -195 -17 -195 -22 0 -12 424 -10 540 3 l100 12 48 -42 c26
-22 82 -65 125 -93 42 -29 77 -55 77 -58 0 -4 -33 -14 -72 -24 -266 -68 -642
-195 -625 -212 2 -3 94 18 203 47 110 28 208 53 220 56 18 4 21 0 22 -27 0
-17 4 -45 7 -61 7 -29 7 -29 -32 -23 -31 4 -45 1 -76 -20 -35 -24 -46 -26
-155 -26 -107 -1 -184 -7 -301 -26 l-43 -7 3 59 c2 44 8 63 23 76 19 15 22 15
48 -4 42 -29 34 -8 -29 84 -32 46 -77 119 -100 163 -40 73 -43 77 -37 40 9
-55 37 -117 84 -186 22 -32 40 -60 40 -62 0 -2 -39 -7 -88 -11 -48 -3 -124
-12 -170 -20 l-82 -13 -20 32 c-11 18 -31 62 -45 99 -45 120 -102 218 -114
197 -4 -6 -19 15 -34 45 -16 31 -26 59 -23 61 3 3 19 0 37 -6 24 -8 128 -8
393 -1 199 6 366 13 371 15 23 8 72 4 83 -7z m-5994 -57 c61 -47 108 -71 136
-71 11 0 20 -4 20 -9 0 -16 -169 -163 -181 -156 -7 5 -8 34 -4 91 5 60 4 88
-5 99 -13 16 -31 85 -22 85 3 0 28 -17 56 -39z m9186 9 c8 -5 11 -12 7 -16 -4
-4 -15 0 -24 9 -18 18 -8 23 17 7z m-771 -43 c-2 -1 -13 -9 -24 -17 -19 -14
-19 -14 -6 3 7 9 18 17 24 17 6 0 8 -1 6 -3z m-9743 -103 c16 -39 18 -52 5
-38 -15 15 -41 85 -30 78 6 -3 17 -21 25 -40z m7884 -37 c0 -11 -30 7 -70 43
l-35 31 52 -33 c29 -18 53 -37 53 -41z m2717 26 c5 -46 13 -56 13 -17 1 28 1
28 16 9 14 -18 13 -22 -8 -39 -23 -18 -23 -18 -29 13 -4 17 -13 39 -20 48 -13
17 -13 17 5 3 18 -14 18 -13 11 10 -4 14 -4 22 0 18 4 -4 10 -24 12 -45z
m-6572 -113 c3 -5 -1 -10 -9 -10 -9 0 -16 5 -16 10 0 6 4 10 9 10 6 0 13 -4
16 -10z m-2431 -227 c-50 -95 -52 -117 -25 -224 11 -41 23 -96 27 -124 15
-106 81 -190 238 -305 41 -30 75 -58 75 -61 1 -11 -223 -90 -448 -160 -178
-55 -204 -61 -212 -47 -5 9 -30 31 -56 50 -75 53 -75 53 -67 23 6 -26 6 -26
-37 -23 -32 2 -43 7 -42 18 18 111 58 257 114 414 37 105 42 113 72 122 22 6
33 16 35 32 3 19 -1 22 -29 22 -41 0 -33 9 12 13 l34 2 42 125 c45 134 52 193
28 241 -16 30 -14 40 12 70 13 16 25 12 143 -44 l128 -60 -44 -84z m1600 115
c-10 -13 -48 -55 -85 -93 -115 -125 -204 -264 -178 -281 14 -8 13 -9 97 118
69 103 92 130 92 109 0 -21 46 -52 97 -67 29 -9 53 -17 53 -20 0 -2 -13 -22
-29 -45 -28 -38 -72 -142 -85 -201 l-6 -27 -273 5 c-263 5 -756 38 -768 52 -3
4 2 35 13 70 13 45 23 62 36 62 9 0 60 -11 112 -25 209 -55 356 -69 528 -49
111 12 77 24 -70 24 -153 0 -288 16 -408 49 -86 24 -249 43 -291 34 -38 -7
-38 9 2 73 23 36 133 182 162 216 1 1 211 5 467 8 256 3 485 6 509 8 l44 2
-19 -22z m6856 -42 c0 -5 -7 -3 -15 4 -8 7 -15 20 -15 28 0 13 3 12 15 -4 8
-10 15 -23 15 -28z m-1006 -1 c3 -9 0 -15 -9 -15 -8 0 -15 7 -15 15 0 8 4 15
9 15 5 0 11 -7 15 -15z m76 -26 c0 -5 -4 -9 -10 -9 -5 0 -10 7 -10 16 0 8 5
12 10 9 6 -3 10 -10 10 -16z m-8002 -49 c-7 -11 -17 -20 -22 -20 -5 0 -1 9 9
20 10 11 20 20 22 20 2 0 -2 -9 -9 -20z m6817 -55 c216 -37 370 -55 471 -55
52 0 68 -4 90 -24 l28 -23 -84 -94 c-113 -128 -121 -135 -61 -55 28 38 49 71
46 74 -5 6 -86 -82 -126 -138 -16 -22 -37 -43 -47 -49 -33 -18 -294 5 -497 43
-104 20 -202 41 -217 46 -18 5 -28 5 -28 -1 0 -5 5 -9 12 -9 6 0 9 -2 7 -5 -3
-2 -28 3 -57 11 l-52 16 21 29 c12 17 31 34 43 39 12 4 61 55 110 113 49 59
94 108 100 111 21 8 41 6 241 -29z m675 25 c0 -5 -5 -10 -11 -10 -5 0 -7 5 -4
10 3 6 8 10 11 10 2 0 4 -4 4 -10z m1584 -88 c2 -4 0 -14 -6 -22 -8 -12 -9
-12 -5 2 3 9 1 19 -6 22 -9 3 -9 5 0 5 6 1 14 -3 17 -7z m-894 -188 c0 -6 -65
41 -97 70 -13 11 -23 24 -23 29 0 5 27 -14 60 -43 33 -29 60 -54 60 -56z
m-8132 -13 c3 -8 -1 -12 -9 -9 -7 2 -15 10 -17 17 -3 8 1 12 9 9 7 -2 15 -10
17 -17z m942 -37 c14 -8 17 -13 7 -10 -10 3 -25 6 -33 6 -8 0 -14 5 -14 10 0
14 10 12 40 -6z m-1000 -64 c0 -6 -23 -70 -51 -143 -48 -123 -51 -136 -47
-204 l3 -73 -30 -11 c-16 -6 -65 -13 -107 -16 -121 -9 -163 18 -163 106 0 45
0 45 101 125 56 45 141 113 190 153 91 73 104 81 104 63z m6800 -19 c36 -5
131 -11 213 -13 81 -1 147 -5 147 -9 0 -4 -12 -38 -26 -75 -25 -67 -44 -100
-44 -77 0 12 -69 43 -170 78 -71 25 -251 120 -210 111 14 -3 54 -9 90 -15z
m1270 -102 c0 -5 -10 -9 -21 -9 -18 0 -19 2 -9 15 12 15 30 12 30 -6z m116
-98 c83 -88 156 -147 222 -182 24 -12 46 -28 49 -36 7 -19 62 -46 79 -39 8 3
14 16 14 30 0 16 17 40 56 75 31 29 58 50 61 47 2 -2 -10 -33 -28 -67 -18 -35
-51 -118 -75 -184 l-42 -120 -62 -24 c-61 -25 -63 -25 -228 -14 -241 16 -523
89 -552 143 -8 14 -8 36 -1 75 28 151 151 276 335 342 50 17 92 32 93 32 2 1
37 -35 79 -78z m-6733 -316 c20 -8 39 -20 43 -26 4 -6 3 -10 -2 -7 -5 2 -26
12 -46 21 -21 10 -38 19 -38 22 0 7 4 6 43 -10z m6037 -10 c0 -2 -7 -5 -15 -9
-9 -3 -15 0 -15 9 0 9 6 12 15 9 8 -4 15 -7 15 -9z m-5849 -95 c15 -103 20
-220 11 -220 -5 0 -12 15 -16 33 -3 17 -22 70 -40 117 -19 47 -38 97 -41 112
l-7 27 43 -12 c42 -12 44 -15 50 -57z m6154 -272 l65 -32 0 -83 c0 -76 -2 -85
-27 -112 -17 -18 -40 -31 -58 -33 l-30 -3 -7 85 c-11 142 -14 210 -11 210 1 0
32 -14 68 -32z m-6683 -5 c-3 -16 -7 -22 -10 -15 -4 13 4 42 11 42 2 0 2 -12
-1 -27z m-15 -120 c-2 -24 -6 -45 -8 -47 -12 -10 -79 -16 -79 -6 0 5 6 10 13
10 6 0 22 23 34 51 27 61 48 57 40 -8z m6993 -78 l0 -55 -34 0 c-62 0 -66 5
-66 86 l0 74 50 -25 50 -25 0 -55z m410 75 c0 -5 -8 -10 -17 -10 -15 0 -16 2
-3 10 19 12 20 12 20 0z m-8841 -86 c14 -12 -19 -1 -35 12 -18 14 -18 14 6 3
14 -6 27 -13 29 -15z m8417 -111 c-3 -16 -8 -54 -12 -85 -6 -55 -22 -75 -39
-48 -3 6 -12 10 -19 10 -10 0 -15 -35 -20 -137 -6 -116 -4 -144 11 -185 9 -26
15 -49 12 -51 -2 -2 -31 -1 -64 2 l-60 6 -43 63 c-57 86 -61 107 -27 133 14
12 51 57 81 100 50 71 59 79 88 79 38 0 72 22 62 39 -5 8 -20 10 -39 6 l-32
-6 31 15 c35 15 45 34 37 65 -4 17 -1 21 17 21 18 0 21 -4 16 -27z m-306 3 c0
-3 -4 -8 -10 -11 -5 -3 -10 -1 -10 4 0 6 5 11 10 11 6 0 10 -2 10 -4z m478 -5
c10 -6 7 -10 -12 -13 -18 -4 -26 -1 -26 8 0 16 18 18 38 5z m-328 -92 c0 -6
-12 -25 -27 -43 -14 -17 -24 -26 -21 -21 2 6 11 25 18 43 14 31 30 43 30 21z
m-6553 -51 c-3 -8 -6 -5 -6 6 -1 11 2 17 5 13 3 -3 4 -12 1 -19z m5935 -24
c-7 -12 -11 -13 -17 -4 -4 7 -2 16 6 21 18 11 23 4 11 -17z m1339 -40 c-10
-24 -49 -40 -73 -31 -8 3 -1 9 15 16 17 7 33 24 40 41 9 25 13 27 20 14 6 -10
5 -25 -2 -40z m-841 -43 c0 -6 -4 -13 -10 -16 -5 -3 -10 1 -10 9 0 9 5 16 10
16 6 0 10 -4 10 -9z m-7535 -32 c10 -42 2 -45 -11 -3 -6 19 -8 34 -3 34 4 0
10 -14 14 -31z m1787 -416 c23 -21 23 -32 -1 -26 -11 3 -21 13 -24 24 -6 23 1
24 25 2z m5398 -28 c-14 -17 -40 -20 -40 -6 0 8 18 16 44 20 5 0 3 -6 -4 -14z
m405 -5 c-3 -5 -11 -10 -16 -10 -6 0 -7 5 -4 10 3 6 11 10 16 10 6 0 7 -4 4
-10z m510 -40 c3 -6 -1 -7 -9 -4 -18 7 -21 14 -7 14 6 0 13 -4 16 -10z m-6190
-10 c3 -5 1 -10 -4 -10 -6 0 -11 5 -11 10 0 6 2 10 4 10 3 0 8 -4 11 -10z
m6230 -10 c3 -6 -1 -7 -9 -4 -18 7 -21 14 -7 14 6 0 13 -4 16 -10z m-7040
-418 c-8 -8 -25 10 -19 20 4 6 9 5 15 -3 4 -7 6 -15 4 -17z m525 -22 c0 -5 -2
-10 -4 -10 -3 0 -8 5 -11 10 -3 6 -1 10 4 10 6 0 11 -4 11 -10z"/>
<path d="M5893 8590 c-18 -7 -23 -17 -23 -44 0 -19 -18 -121 -41 -228 -56
-265 -54 -247 -35 -254 8 -3 59 -1 112 5 90 9 121 22 108 43 -7 11 -89 10
-139 -2 -22 -5 -42 -7 -44 -4 -4 4 22 150 35 197 4 13 16 17 55 17 36 0 49 4
49 15 0 18 -31 35 -65 35 -26 0 -26 0 -20 58 3 31 8 73 11 93 l5 36 79 -5 c69
-4 81 -2 86 13 4 10 1 21 -7 26 -18 11 -137 10 -166 -1z"/>
<path d="M5466 8575 c-128 -18 -156 -25 -156 -36 0 -5 43 -9 95 -9 l95 0 0
-27 c0 -16 -10 -104 -21 -196 -19 -149 -20 -170 -7 -183 13 -13 16 -5 26 68 7
46 16 137 22 203 6 66 13 126 16 134 3 11 19 12 69 7 55 -6 66 -4 72 9 3 9 2
20 -3 25 -17 17 -109 19 -208 5z"/>
<path d="M6311 8571 c-22 -22 -70 -122 -99 -206 -70 -205 -93 -309 -63 -291 5
3 20 43 35 88 15 46 30 88 34 94 4 7 37 15 73 19 l67 7 3 -95 c3 -59 9 -101
17 -109 9 -10 12 9 12 94 0 102 1 106 25 122 32 21 32 32 -4 50 -27 14 -28 19
-33 99 -5 72 -27 147 -43 147 -3 0 -13 -8 -24 -19z m35 -129 c10 -91 3 -107
-52 -121 -26 -7 -49 -9 -52 -7 -8 8 15 81 50 156 34 75 44 70 54 -28z"/>
<path d="M6606 8570 c-3 -8 -33 -122 -66 -254 -42 -164 -58 -242 -51 -249 14
-14 21 6 72 216 24 97 46 177 50 177 4 0 10 -21 14 -47 15 -102 48 -110 131
-32 l54 52 1 -139 c0 -162 8 -219 29 -219 13 0 15 30 12 215 -4 205 -12 265
-36 265 -5 0 -18 -24 -29 -54 -20 -52 -83 -131 -104 -131 -6 0 -21 42 -33 93
-26 106 -36 130 -44 107z"/>
<path d="M6825 7865 c-38 -30 -99 -67 -134 -82 -115 -51 -225 -108 -228 -119
-2 -6 19 -26 46 -45 28 -19 51 -36 51 -39 0 -3 -31 -41 -70 -85 -38 -44 -109
-127 -157 -185 -87 -104 -321 -350 -333 -350 -8 0 -187 294 -224 368 -14 28
-33 52 -41 52 -19 0 -149 -105 -207 -168 -55 -59 -65 -93 -13 -42 41 40 45 35
10 -16 -28 -41 -31 -54 -12 -54 33 1 90 30 142 75 l57 48 19 -24 c10 -13 50
-80 90 -149 138 -240 179 -309 188 -314 5 -3 33 27 64 67 30 39 130 158 223
262 93 105 211 241 262 303 52 62 100 112 108 112 8 0 32 -16 54 -36 22 -20
46 -34 53 -31 8 3 42 99 77 214 35 114 66 215 70 223 8 18 -2 63 -15 66 -6 2
-41 -22 -80 -51z m-295 -368 c0 -1 -26 -27 -57 -57 l-58 -55 55 58 c50 53 60
62 60 54z"/>
<path d="M5793 6196 c-43 -31 -93 -222 -93 -353 0 -60 3 -67 30 -93 40 -38
109 -49 145 -26 33 22 41 43 66 183 24 138 19 230 -15 270 -28 32 -100 42
-133 19z m93 -41 c32 -22 37 -109 14 -250 -22 -136 -36 -160 -88 -151 -61 9
-82 31 -82 82 0 63 29 233 45 264 20 37 54 70 73 70 10 0 27 -7 38 -15z"/>
<path d="M6040 6181 c-6 -12 -16 -82 -21 -154 -6 -73 -16 -168 -24 -211 -8
-46 -11 -85 -6 -94 15 -26 37 25 52 116 7 45 16 82 21 82 5 0 32 -24 61 -52
74 -74 164 -135 179 -120 18 18 3 38 -59 80 -32 22 -74 54 -93 70 l-34 29 50
49 c54 53 67 87 53 138 -14 52 -51 79 -113 84 -48 4 -55 2 -66 -17z m111 -24
c28 -21 41 -57 35 -92 -8 -43 -59 -87 -95 -83 -26 3 -26 4 -29 96 l-3 92 38 0
c21 0 45 -6 54 -13z"/>
<path d="M6443 6180 c-14 -34 -26 -427 -14 -435 13 -8 24 13 31 59 3 22 10 41
16 43 6 2 33 -14 61 -36 58 -46 94 -63 113 -51 22 14 3 38 -48 60 -27 12 -61
34 -76 49 l-26 27 40 55 c22 30 68 80 102 111 47 43 60 60 51 69 -24 24 -75
-18 -185 -151 l-38 -45 0 95 c-1 52 -5 113 -9 135 -8 39 -8 39 -18 15z"/>
<path d="M5585 6038 c-37 -84 -72 -165 -77 -180 -6 -16 -14 -28 -18 -28 -9 0
-11 10 -35 145 -20 114 -23 122 -39 128 -10 4 -22 -16 -39 -66 -41 -115 -97
-231 -107 -221 -11 11 -75 225 -85 281 -7 44 -44 103 -45 72 0 -12 72 -290
107 -411 3 -10 9 -18 14 -18 5 0 39 61 76 135 37 74 70 135 73 135 3 0 18 -61
34 -135 16 -74 33 -135 38 -135 12 0 208 406 208 431 0 12 -7 19 -19 19 -15 0
-34 -33 -86 -152z"/>
<path d="M3955 6520 c-3 -5 -2 -10 4 -10 5 0 13 5 16 10 3 6 2 10 -4 10 -5 0
-13 -4 -16 -10z"/>
<path d="M4062 6030 c1 -25 4 -54 8 -65 7 -20 7 -20 14 1 3 11 0 40 -8 64
l-14 45 0 -45z"/>
<path d="M1680 4325 c-32 -12 -33 -14 -9 -14 14 -1 34 6 45 14 23 18 10 18
-36 0z"/>
<path d="M12348 6303 c-34 -38 -119 -208 -116 -233 2 -14 8 -25 13 -25 17 1
166 229 163 250 -4 26 -40 31 -60 8z"/>
<path d="M12512 6174 c-33 -23 -29 -54 7 -54 20 0 36 -9 51 -27 20 -26 21 -28
3 -41 -10 -7 -36 -23 -58 -34 -52 -26 -85 -57 -85 -79 0 -30 20 -32 48 -6 15
14 50 39 78 56 80 49 98 118 45 172 -33 33 -56 36 -89 13z"/>
<path d="M12705 5948 c-30 -8 -59 -30 -113 -85 -40 -41 -70 -79 -67 -84 12
-18 46 -8 112 35 37 24 85 50 107 57 49 18 69 55 41 75 -21 16 -25 16 -80 2z"/>
<path d="M12146 5921 c-38 -42 3 -93 45 -55 22 20 25 44 7 62 -17 17 -32 15
-52 -7z"/>
<path d="M12311 5851 c-36 -36 -20 -71 31 -71 31 0 51 28 46 63 -4 31 -50 35
-77 8z"/>
<path d="M12426 5675 c-3 -9 0 -24 6 -35 12 -19 13 -19 34 1 13 12 20 27 17
35 -7 19 -49 18 -57 -1z"/>
<path d="M6734 2375 c-160 -35 -376 -190 -439 -316 -15 -30 -29 -55 -30 -57
-2 -2 -20 4 -41 14 -40 17 -147 25 -160 12 -4 -4 14 -63 39 -130 47 -122 77
-226 77 -260 0 -17 -2 -17 -30 -3 -16 8 -46 15 -67 15 -139 0 -152 -212 -20
-326 56 -48 169 -102 242 -116 35 -6 174 -11 335 -12 296 -1 337 3 640 70 232
51 346 136 439 326 49 99 51 106 51 188 0 109 -25 250 -55 318 -28 62 -108
149 -177 193 -94 61 -167 80 -338 90 -217 12 -394 10 -466 -6z m680 -76 c79
-31 64 -33 -20 -4 -38 14 -62 25 -52 25 9 0 41 -10 72 -21z"/>
</g>
</svg>
